<svg width="131" height="263" viewBox="0 0 131 263" fill="none" xmlns="http://www.w3.org/2000/svg">
<g clip-path="url(#clip0_0_7)">
<path d="M132.117 154.767C145.126 154.767 155.671 144.253 155.671 131.282C155.671 118.312 145.126 107.797 132.117 107.797C119.109 107.797 108.563 118.312 108.563 131.282C108.563 144.253 119.109 154.767 132.117 154.767Z" fill="#33373E"/>
<path fill-rule="evenodd" clip-rule="evenodd" d="M132.122 83.5326C163.746 83.5326 193.125 88.0571 215.276 95.6607C241.965 104.822 258.375 118.709 258.375 131.283C258.375 144.386 240.984 159.139 212.323 168.607C190.655 175.765 162.142 179.501 132.122 179.501C101.343 179.501 72.1975 175.994 50.2853 168.528C22.5623 159.08 5.86449 144.137 5.86449 131.283C5.86449 118.811 21.5322 105.031 47.8462 95.884C70.08 88.155 100.184 83.5326 132.118 83.5326H132.122Z" stroke="#33373E" stroke-width="11.2354"/>
<path fill-rule="evenodd" clip-rule="evenodd" d="M90.4351 107.545C106.234 80.2295 124.841 57.1146 142.514 41.7803C163.806 23.3046 184.069 16.0691 194.993 22.3501C206.378 28.8961 210.507 51.2877 204.415 80.7721C199.814 103.064 188.811 129.558 173.814 155.487C158.437 182.072 140.83 205.494 123.399 220.686C101.341 239.912 80.0156 246.869 68.8482 240.448C58.0118 234.221 53.8678 213.801 59.0663 186.502C63.4586 163.437 74.4814 135.126 90.4299 107.544L90.4351 107.545Z" stroke="#33373E" stroke-width="11.2354"/>
<path fill-rule="evenodd" clip-rule="evenodd" d="M90.4647 155.557C74.6209 128.272 63.8338 100.65 59.3312 77.7259C53.9111 50.1057 57.7433 28.9879 68.6576 22.6886C80.0311 16.1234 101.549 23.7391 124.126 43.7268C141.196 58.8383 158.724 81.5698 173.765 107.475C189.185 134.034 200.743 160.941 205.239 183.586C210.928 212.242 206.324 234.138 195.167 240.577C184.341 246.826 164.531 240.21 143.407 222.086C125.56 206.773 106.465 183.112 90.4647 155.556V155.557Z" stroke="#33373E" stroke-width="11.2354"/>
</g>
<defs>
<clipPath id="clip0_0_7">
<rect width="263.772" height="263" fill="white" transform="translate(0.2276)"/>
</clipPath>
</defs>
</svg>
